<?xml version="1.0" encoding="UTF-8"?>
<svg version="1.1" xmlns="http://www.w3.org/2000/svg" width="130" height="128">
<path d="M0 0 C0.77943466 0.00222061 1.55886932 0.00444122 2.36192322 0.00672913 C3.24276077 0.00680466 4.12359833 0.00688019 5.03112793 0.00695801 C5.98841293 0.01211929 6.94569794 0.01728058 7.93199158 0.02259827 C9.39480812 0.02472069 9.39480812 0.02472069 10.88717651 0.02688599 C14.01542675 0.03250319 17.14360656 0.04505859 20.27183533 0.05775452 C22.38706867 0.0627673 24.50230313 0.06733059 26.61753845 0.07142639 C31.81485334 0.08162921 37.01201508 0.1012012 42.20933533 0.12025452 C42.20933533 10.35025452 42.20933533 20.58025452 42.20933533 31.12025452 C40.88933533 31.45025452 39.56933533 31.78025452 38.20933533 32.12025452 C37.20933533 31.12025452 37.20933533 31.12025452 37.09580994 28.62001038 C37.10366516 26.99397888 37.10366516 26.99397888 37.11167908 25.33509827 C37.11417664 24.28185364 37.11667419 23.22860901 37.11924744 22.14344788 C37.12835144 20.79516907 37.13745544 19.44689026 37.14683533 18.05775452 C37.16746033 13.78837952 37.18808533 9.51900452 37.20933533 5.12025452 C25.98933533 5.12025452 14.76933533 5.12025452 3.20933533 5.12025452 C3.20933533 7.43025452 3.20933533 9.74025452 3.20933533 12.12025452 C4.2387323 12.10454407 4.2387323 12.10454407 5.28892517 12.08851624 C8.38735822 12.04703577 11.48573293 12.02095383 14.58433533 11.99525452 C15.6645697 11.9784967 16.74480408 11.96173889 17.85777283 11.94447327 C18.88902283 11.93802795 19.92027283 11.93158264 20.98277283 11.92494202 C22.41242371 11.90923157 22.41242371 11.90923157 23.87095642 11.89320374 C26.20933533 12.12025452 26.20933533 12.12025452 28.20933533 14.12025452 C28.52818298 16.64222717 28.52818298 16.64222717 28.62339783 19.78431702 C28.6620697 20.90580139 28.70074158 22.02728577 28.74058533 23.18275452 C28.77152283 24.35837952 28.80246033 25.53400452 28.83433533 26.74525452 C28.8730072 27.92861389 28.91167908 29.11197327 28.95152283 30.33119202 C29.04602378 33.26072142 29.13158091 36.19024049 29.20933533 39.12025452 C30.37952209 38.8768634 30.37952209 38.8768634 31.573349 38.6285553 C36.19997277 37.98176616 40.71965392 37.97726906 45.38511658 37.98744202 C46.3508812 37.98648529 47.31664581 37.98552856 48.31167603 37.98454285 C50.34307419 37.98386472 52.37447457 37.98569332 54.40586853 37.98988342 C57.52855724 37.9952661 60.65110402 37.98991109 63.77378845 37.98353577 C65.74839815 37.98419604 67.72300775 37.98547615 69.69761658 37.98744202 C70.63607925 37.98541779 71.57454193 37.98339355 72.54144287 37.98130798 C73.40291428 37.98446014 74.26438568 37.9876123 75.15196228 37.99085999 C75.91329971 37.99165558 76.67463715 37.99245117 77.45904541 37.99327087 C79.20933533 38.12025452 79.20933533 38.12025452 80.20933533 39.12025452 C80.31050453 42.21106917 80.3490209 45.27908007 80.34214783 48.37025452 C80.34310455 49.29870178 80.34406128 50.22714905 80.345047 51.18373108 C80.34572888 53.15085416 80.34387405 55.11797948 80.33970642 57.08509827 C80.33435828 60.10728478 80.33965115 63.12932266 80.34605408 66.15150452 C80.3453933 68.05775485 80.34411214 69.96400508 80.34214783 71.87025452 C80.34417206 72.78065491 80.34619629 73.6910553 80.34828186 74.62904358 C80.32428501 81.00530483 80.32428501 81.00530483 79.20933533 82.12025452 C77.18969334 82.19269505 75.16766409 82.2040264 73.14683533 82.18275452 C72.04210876 82.17373108 70.9373822 82.16470764 69.79917908 82.15541077 C68.94453064 82.1438092 68.0898822 82.13220764 67.20933533 82.12025452 C67.02371033 83.29587952 67.02371033 83.29587952 66.83433533 84.49525452 C66.20933533 87.12025452 66.20933533 87.12025452 64.20933533 89.12025452 C61.9627533 89.3473053 61.9627533 89.3473053 59.20152283 89.31556702 C58.31319763 89.3105719 57.42487244 89.30557678 56.5096283 89.3004303 C54.81410828 89.27311829 54.81410828 89.27311829 53.08433533 89.24525452 C49.49558533 89.20400452 45.90683533 89.16275452 42.20933533 89.12025452 C42.20933533 99.35025452 42.20933533 109.58025452 42.20933533 120.12025452 C39.444815 121.50251468 37.16319902 121.21550839 34.08433533 121.18275452 C32.9886322 121.17373108 31.89292908 121.16470764 30.76402283 121.15541077 C29.49945251 121.13800842 29.49945251 121.13800842 28.20933533 121.12025452 C27.87933533 123.43025452 27.54933533 125.74025452 27.20933533 128.12025452 C21.97661964 128.19429163 16.74420732 128.24880234 11.51109314 128.28504944 C9.73011466 128.30015624 7.94917349 128.32064286 6.1683197 128.34657288 C3.61158554 128.38287395 1.05534222 128.3999614 -1.50160217 128.41322327 C-2.30060944 128.42870712 -3.0996167 128.44419098 -3.9228363 128.46014404 C-6.16712952 128.46083069 -6.16712952 128.46083069 -9.79066467 128.12025452 C-12.22841737 124.46362548 -12.13753012 121.62610023 -12.20472717 117.38978577 C-12.22409332 116.63936508 -12.24345947 115.8889444 -12.26341248 115.11578369 C-12.32313926 112.72155585 -12.36956532 110.32727974 -12.41566467 107.93275452 C-12.45385087 106.30838472 -12.49290299 104.68403503 -12.53285217 103.05970764 C-12.62883492 99.08005347 -12.71289104 95.10030451 -12.79066467 91.12025452 C-15.77604145 89.62756613 -18.85766486 89.92266067 -22.13441467 89.87416077 C-23.62270205 89.8412336 -25.11098316 89.80802177 -26.59925842 89.77455139 C-28.94963926 89.72705155 -31.29999262 89.68259915 -33.65052795 89.64344788 C-35.91625587 89.60382729 -38.18146857 89.55227191 -40.44691467 89.49916077 C-41.15215271 89.49074661 -41.85739075 89.48233246 -42.58399963 89.47366333 C-47.56396322 89.34695597 -47.56396322 89.34695597 -49.79066467 87.12025452 C-49.99020661 84.64612273 -50.07055942 82.28637933 -50.05628967 79.81166077 C-50.05820312 79.0891362 -50.06011658 78.36661163 -50.06208801 77.62219238 C-50.06344971 76.0931412 -50.05975432 74.56407845 -50.05140686 73.03504944 C-50.04072218 70.69534768 -50.05129417 68.35641645 -50.06410217 66.01673889 C-50.06278027 64.53171115 -50.06021724 63.0466839 -50.05628967 61.56166077 C-50.06033813 60.86158401 -50.0643866 60.16150726 -50.06855774 59.44021606 C-50.03324121 55.77652156 -49.8806209 54.25518886 -47.79066467 51.12025452 C-44.16566467 50.93275452 -44.16566467 50.93275452 -40.79066467 51.12025452 C-40.8138678 50.34939514 -40.83707092 49.57853577 -40.86097717 48.78431702 C-40.87902405 47.78142639 -40.89707092 46.77853577 -40.91566467 45.74525452 C-40.9388678 44.74752014 -40.96207092 43.74978577 -40.98597717 42.72181702 C-40.79066467 40.12025452 -40.79066467 40.12025452 -38.79066467 38.12025452 C-36.08509827 37.89320374 -36.08509827 37.89320374 -32.68910217 37.92494202 C-30.87152405 37.93460999 -30.87152405 37.93460999 -29.01722717 37.94447327 C-27.74621155 37.96123108 -26.47519592 37.97798889 -25.16566467 37.99525452 C-23.88691467 38.00427795 -22.60816467 38.01330139 -21.29066467 38.02259827 C-18.123813 38.04623149 -14.95733044 38.07917823 -11.79066467 38.12025452 C-11.80637512 37.09871277 -11.80637512 37.09871277 -11.82240295 36.05653381 C-11.86395345 32.97364486 -11.88998779 29.89081481 -11.91566467 26.80775452 C-11.93242249 25.73589905 -11.9491803 24.66404358 -11.96644592 23.55970764 C-11.97611389 22.01766663 -11.97611389 22.01766663 -11.98597717 20.44447327 C-12.00168762 19.02267761 -12.00168762 19.02267761 -12.01771545 17.57215881 C-11.79066467 15.12025452 -11.79066467 15.12025452 -9.79066467 12.12025452 C-6.16566467 11.93275452 -6.16566467 11.93275452 -2.79066467 12.12025452 C-2.80226624 11.33779358 -2.8138678 10.55533264 -2.82582092 9.74916077 C-2.83484436 8.7372467 -2.8438678 7.72533264 -2.85316467 6.68275452 C-2.86476624 5.67341858 -2.8763678 4.66408264 -2.88832092 3.62416077 C-2.75418677 0.18496115 -2.75418677 0.18496115 0 0 Z " fill="#89C247" transform="translate(49.79066467285156,-0.1202545166015625)"/>
<path d="M0 0 C0.77943466 0.00222061 1.55886932 0.00444122 2.36192322 0.00672913 C3.24276077 0.00680466 4.12359833 0.00688019 5.03112793 0.00695801 C5.98841293 0.01211929 6.94569794 0.01728058 7.93199158 0.02259827 C9.39480812 0.02472069 9.39480812 0.02472069 10.88717651 0.02688599 C14.01542675 0.03250319 17.14360656 0.04505859 20.27183533 0.05775452 C22.38706867 0.0627673 24.50230313 0.06733059 26.61753845 0.07142639 C31.81485334 0.08162921 37.01201508 0.1012012 42.20933533 0.12025452 C42.20933533 10.35025452 42.20933533 20.58025452 42.20933533 31.12025452 C40.88933533 31.45025452 39.56933533 31.78025452 38.20933533 32.12025452 C37.20933533 31.12025452 37.20933533 31.12025452 37.09580994 28.62001038 C37.10366516 26.99397888 37.10366516 26.99397888 37.11167908 25.33509827 C37.11417664 24.28185364 37.11667419 23.22860901 37.11924744 22.14344788 C37.12835144 20.79516907 37.13745544 19.44689026 37.14683533 18.05775452 C37.16746033 13.78837952 37.18808533 9.51900452 37.20933533 5.12025452 C25.65933533 5.12025452 14.10933533 5.12025452 2.20933533 5.12025452 C2.20933533 17.66025452 2.20933533 30.20025452 2.20933533 43.12025452 C-10.33066467 43.12025452 -22.87066467 43.12025452 -35.79066467 43.12025452 C-35.79066467 54.34025452 -35.79066467 65.56025452 -35.79066467 77.12025452 C-33.05914124 77.10865295 -30.3276178 77.09705139 -27.51332092 77.08509827 C-24.87896338 77.07730809 -22.2446071 77.07123111 -19.61024475 77.06532288 C-17.77397592 77.0602822 -15.93771113 77.05344975 -14.10145569 77.04481506 C-11.46790066 77.03273779 -8.83439851 77.02702371 -6.20082092 77.02259827 C-5.37477859 77.01743698 -4.54873627 77.0122757 -3.69766235 77.00695801 C-1.728301 77.00676247 0.24095146 77.058213 2.20933533 77.12025452 C3.20933533 78.12025452 3.20933533 78.12025452 3.32286072 81.63026428 C3.32270159 83.19073873 3.31700675 84.75121845 3.30699158 86.31166077 C3.30557663 87.13149948 3.30416168 87.9513382 3.30270386 88.79602051 C3.29708822 91.42496834 3.28453312 94.05383225 3.27183533 96.68275452 C3.26682234 98.46074808 3.26225908 100.23874298 3.25816345 102.01673889 C3.24796285 106.38463609 3.22839065 110.75235092 3.20933533 115.12025452 C14.42933533 115.12025452 25.64933533 115.12025452 37.20933533 115.12025452 C37.20933533 102.58025452 37.20933533 90.04025452 37.20933533 77.12025452 C49.74933533 77.12025452 62.28933533 77.12025452 75.20933533 77.12025452 C75.20933533 65.90025452 75.20933533 54.68025452 75.20933533 43.12025452 C69.55269446 43.19461652 63.89753099 43.27777031 58.24156189 43.38270569 C56.32139496 43.41576197 54.40113536 43.44385263 52.4808197 43.46669006 C49.70503094 43.50059393 46.93007681 43.55292361 44.15464783 43.60853577 C43.30943573 43.61492569 42.46422363 43.62131561 41.59339905 43.62789917 C31.65818299 43.86769958 22.8200675 46.61293704 15.20933533 53.12025452 C10.42055413 58.23081152 7.09508477 63.77160575 4.20933533 70.12025452 C2.88933533 69.79025452 1.56933533 69.46025452 0.20933533 69.12025452 C1.23810583 60.13479065 7.45968498 53.08256432 13.83433533 46.94447327 C23.4935892 39.52527662 33.62712661 37.96180394 45.38511658 37.98744202 C46.3508812 37.98648529 47.31664581 37.98552856 48.31167603 37.98454285 C50.34307419 37.98386472 52.37447457 37.98569332 54.40586853 37.98988342 C57.52855724 37.9952661 60.65110402 37.98991109 63.77378845 37.98353577 C65.74839815 37.98419604 67.72300775 37.98547615 69.69761658 37.98744202 C70.63607925 37.98541779 71.57454193 37.98339355 72.54144287 37.98130798 C73.40291428 37.98446014 74.26438568 37.9876123 75.15196228 37.99085999 C75.91329971 37.99165558 76.67463715 37.99245117 77.45904541 37.99327087 C79.20933533 38.12025452 79.20933533 38.12025452 80.20933533 39.12025452 C80.31050453 42.21106917 80.3490209 45.27908007 80.34214783 48.37025452 C80.34310455 49.29870178 80.34406128 50.22714905 80.345047 51.18373108 C80.34572888 53.15085416 80.34387405 55.11797948 80.33970642 57.08509827 C80.33435828 60.10728478 80.33965115 63.12932266 80.34605408 66.15150452 C80.3453933 68.05775485 80.34411214 69.96400508 80.34214783 71.87025452 C80.34417206 72.78065491 80.34619629 73.6910553 80.34828186 74.62904358 C80.32428501 81.00530483 80.32428501 81.00530483 79.20933533 82.12025452 C77.18969334 82.19269505 75.16766409 82.2040264 73.14683533 82.18275452 C72.04210876 82.17373108 70.9373822 82.16470764 69.79917908 82.15541077 C68.94453064 82.1438092 68.0898822 82.13220764 67.20933533 82.12025452 C67.02371033 83.29587952 67.02371033 83.29587952 66.83433533 84.49525452 C66.20933533 87.12025452 66.20933533 87.12025452 64.20933533 89.12025452 C61.9627533 89.3473053 61.9627533 89.3473053 59.20152283 89.31556702 C58.31319763 89.3105719 57.42487244 89.30557678 56.5096283 89.3004303 C54.81410828 89.27311829 54.81410828 89.27311829 53.08433533 89.24525452 C49.49558533 89.20400452 45.90683533 89.16275452 42.20933533 89.12025452 C42.20933533 99.35025452 42.20933533 109.58025452 42.20933533 120.12025452 C39.444815 121.50251468 37.16319902 121.21550839 34.08433533 121.18275452 C32.9886322 121.17373108 31.89292908 121.16470764 30.76402283 121.15541077 C29.49945251 121.13800842 29.49945251 121.13800842 28.20933533 121.12025452 C27.87933533 123.43025452 27.54933533 125.74025452 27.20933533 128.12025452 C21.97661964 128.19429163 16.74420732 128.24880234 11.51109314 128.28504944 C9.73011466 128.30015624 7.94917349 128.32064286 6.1683197 128.34657288 C3.61158554 128.38287395 1.05534222 128.3999614 -1.50160217 128.41322327 C-2.30060944 128.42870712 -3.0996167 128.44419098 -3.9228363 128.46014404 C-6.16712952 128.46083069 -6.16712952 128.46083069 -9.79066467 128.12025452 C-12.22841737 124.46362548 -12.13753012 121.62610023 -12.20472717 117.38978577 C-12.22409332 116.63936508 -12.24345947 115.8889444 -12.26341248 115.11578369 C-12.32313926 112.72155585 -12.36956532 110.32727974 -12.41566467 107.93275452 C-12.45385087 106.30838472 -12.49290299 104.68403503 -12.53285217 103.05970764 C-12.62883492 99.08005347 -12.71289104 95.10030451 -12.79066467 91.12025452 C-15.77604145 89.62756613 -18.85766486 89.92266067 -22.13441467 89.87416077 C-23.62270205 89.8412336 -25.11098316 89.80802177 -26.59925842 89.77455139 C-28.94963926 89.72705155 -31.29999262 89.68259915 -33.65052795 89.64344788 C-35.91625587 89.60382729 -38.18146857 89.55227191 -40.44691467 89.49916077 C-41.15215271 89.49074661 -41.85739075 89.48233246 -42.58399963 89.47366333 C-47.56396322 89.34695597 -47.56396322 89.34695597 -49.79066467 87.12025452 C-49.99020661 84.64612273 -50.07055942 82.28637933 -50.05628967 79.81166077 C-50.05820312 79.0891362 -50.06011658 78.36661163 -50.06208801 77.62219238 C-50.06344971 76.0931412 -50.05975432 74.56407845 -50.05140686 73.03504944 C-50.04072218 70.69534768 -50.05129417 68.35641645 -50.06410217 66.01673889 C-50.06278027 64.53171115 -50.06021724 63.0466839 -50.05628967 61.56166077 C-50.06033813 60.86158401 -50.0643866 60.16150726 -50.06855774 59.44021606 C-50.03324121 55.77652156 -49.8806209 54.25518886 -47.79066467 51.12025452 C-44.16566467 50.93275452 -44.16566467 50.93275452 -40.79066467 51.12025452 C-40.8138678 50.34939514 -40.83707092 49.57853577 -40.86097717 48.78431702 C-40.87902405 47.78142639 -40.89707092 46.77853577 -40.91566467 45.74525452 C-40.9388678 44.74752014 -40.96207092 43.74978577 -40.98597717 42.72181702 C-40.79066467 40.12025452 -40.79066467 40.12025452 -38.79066467 38.12025452 C-36.08509827 37.89320374 -36.08509827 37.89320374 -32.68910217 37.92494202 C-30.87152405 37.93460999 -30.87152405 37.93460999 -29.01722717 37.94447327 C-27.74621155 37.96123108 -26.47519592 37.97798889 -25.16566467 37.99525452 C-23.88691467 38.00427795 -22.60816467 38.01330139 -21.29066467 38.02259827 C-18.123813 38.04623149 -14.95733044 38.07917823 -11.79066467 38.12025452 C-11.80637512 37.09871277 -11.80637512 37.09871277 -11.82240295 36.05653381 C-11.86395345 32.97364486 -11.88998779 29.89081481 -11.91566467 26.80775452 C-11.93242249 25.73589905 -11.9491803 24.66404358 -11.96644592 23.55970764 C-11.97611389 22.01766663 -11.97611389 22.01766663 -11.98597717 20.44447327 C-12.00168762 19.02267761 -12.00168762 19.02267761 -12.01771545 17.57215881 C-11.79066467 15.12025452 -11.79066467 15.12025452 -9.79066467 12.12025452 C-6.16566467 11.93275452 -6.16566467 11.93275452 -2.79066467 12.12025452 C-2.80226624 11.33779358 -2.8138678 10.55533264 -2.82582092 9.74916077 C-2.83484436 8.7372467 -2.8438678 7.72533264 -2.85316467 6.68275452 C-2.86476624 5.67341858 -2.8763678 4.66408264 -2.88832092 3.62416077 C-2.75418677 0.18496115 -2.75418677 0.18496115 0 0 Z " fill="#2E3B47" transform="translate(49.79066467285156,-0.1202545166015625)"/>
<path d="M0 0 C0.33 0 0.66 0 1 0 C1 2.31 1 4.62 1 7 C2.02939697 6.98428955 2.02939697 6.98428955 3.07958984 6.96826172 C6.17802289 6.92678126 9.27639761 6.90069931 12.375 6.875 C13.45523438 6.85824219 14.53546875 6.84148438 15.6484375 6.82421875 C16.6796875 6.81777344 17.7109375 6.81132812 18.7734375 6.8046875 C20.20308838 6.78897705 20.20308838 6.78897705 21.66162109 6.77294922 C24 7 24 7 26 9 C26.22705078 11.61376953 26.22705078 11.61376953 26.1953125 14.8828125 C26.18886719 16.04941406 26.18242188 17.21601563 26.17578125 18.41796875 C26.15064453 20.25294922 26.15064453 20.25294922 26.125 22.125 C26.11597656 23.35605469 26.10695313 24.58710938 26.09765625 25.85546875 C26.07402548 28.90383815 26.04108054 31.95182382 26 35 C25.154375 35.4125 24.30875 35.825 23.4375 36.25 C11.82724936 42.16067306 4.21973309 48.76130765 -1 61 C-1 61.99 -1 62.98 -1 64 C-0.01 64.66 0.98 65.32 2 66 C1.01049805 68.46948242 1.01049805 68.46948242 -1 71 C-3.92119937 71.45487834 -6.25513667 71.58565495 -9.16796875 71.48828125 C-9.96278152 71.48120651 -10.7575943 71.47413177 -11.57649231 71.46684265 C-14.11445361 71.43885874 -16.65020607 71.3761184 -19.1875 71.3125 C-20.90817125 71.28742205 -22.6288771 71.26460799 -24.34960938 71.24414062 C-28.567941 71.19326832 -32.78149993 71.09544118 -37 71 C-37.33 60.11 -37.66 49.22 -38 38 C-25.46 38 -12.92 38 0 38 C0 25.46 0 12.92 0 0 Z " fill="#8AC24A" transform="translate(52,5)"/>
<path d="M0 0 C0.33 9.9 0.66 19.8 1 30 C19.315 30.495 19.315 30.495 38 31 C38.33 43.54 38.66 56.08 39 69 C49.23 69.33 59.46 69.66 70 70 C69.01 70.495 69.01 70.495 68 71 C67.59270772 73.32156597 67.25561323 75.6568787 67 78 C61.76728431 78.07403712 56.53487199 78.12854783 51.30175781 78.16479492 C49.52077933 78.17990173 47.73983816 78.20038835 45.95898438 78.22631836 C43.40225022 78.26261943 40.8460069 78.27970688 38.2890625 78.29296875 C37.49005524 78.30845261 36.69104797 78.32393646 35.86782837 78.33988953 C33.62353516 78.34057617 33.62353516 78.34057617 30 78 C27.56224731 74.34337096 27.65313456 71.50584571 27.5859375 67.26953125 C27.56657135 66.51911057 27.5472052 65.76868988 27.5272522 64.99552917 C27.46752541 62.60130133 27.42109935 60.20702523 27.375 57.8125 C27.3368138 56.1881302 27.29776169 54.56378052 27.2578125 52.93945312 C27.16182975 48.95979895 27.07777364 44.98004999 27 41 C24.01462323 39.50731161 20.93299981 39.80240615 17.65625 39.75390625 C16.16796262 39.72097908 14.67968151 39.68776725 13.19140625 39.65429688 C10.84102541 39.60679703 8.49067205 39.56234463 6.14013672 39.52319336 C3.8744088 39.48357278 1.6091961 39.4320174 -0.65625 39.37890625 C-1.71410706 39.36628502 -1.71410706 39.36628502 -2.79333496 39.35340881 C-7.77329855 39.22670145 -7.77329855 39.22670145 -10 37 C-10.19954194 34.52586821 -10.27989475 32.16612482 -10.265625 29.69140625 C-10.26753845 28.96888168 -10.2694519 28.24635712 -10.27142334 27.50193787 C-10.27278504 25.97288668 -10.26908964 24.44382393 -10.26074219 22.91479492 C-10.25005751 20.57509316 -10.2606295 18.23616193 -10.2734375 15.89648438 C-10.2721156 14.41145664 -10.26955257 12.92642938 -10.265625 11.44140625 C-10.26967346 10.7413295 -10.27372192 10.04125275 -10.27789307 9.31996155 C-10.24257654 5.65626704 -10.08995623 4.13493434 -8 1 C-5.30782951 0.48045833 -2.75263861 0 0 0 Z " fill="#88C245" transform="translate(10,50)"/>
<path d="M0 0 C0.77943466 0.00222061 1.55886932 0.00444122 2.36192322 0.00672913 C3.24276077 0.00680466 4.12359833 0.00688019 5.03112793 0.00695801 C5.98841293 0.01211929 6.94569794 0.01728058 7.93199158 0.02259827 C9.39480812 0.02472069 9.39480812 0.02472069 10.88717651 0.02688599 C14.01542675 0.03250319 17.14360656 0.04505859 20.27183533 0.05775452 C22.38706867 0.0627673 24.50230313 0.06733059 26.61753845 0.07142639 C31.81485334 0.08162921 37.01201508 0.1012012 42.20933533 0.12025452 C42.20933533 10.35025452 42.20933533 20.58025452 42.20933533 31.12025452 C40.88933533 31.45025452 39.56933533 31.78025452 38.20933533 32.12025452 C37.20933533 31.12025452 37.20933533 31.12025452 37.09580994 28.62001038 C37.10366516 26.99397888 37.10366516 26.99397888 37.11167908 25.33509827 C37.11417664 24.28185364 37.11667419 23.22860901 37.11924744 22.14344788 C37.12835144 20.79516907 37.13745544 19.44689026 37.14683533 18.05775452 C37.16746033 13.78837952 37.18808533 9.51900452 37.20933533 5.12025452 C25.65933533 5.12025452 14.10933533 5.12025452 2.20933533 5.12025452 C1.87933533 17.33025452 1.54933533 29.54025452 1.20933533 42.12025452 C-2.42066467 42.12025452 -6.05066467 42.12025452 -9.79066467 42.12025452 C-10.12066467 41.46025452 -10.45066467 40.80025452 -10.79066467 40.12025452 C-24.65066467 39.62525452 -24.65066467 39.62525452 -38.79066467 39.12025452 C-38.79066467 38.79025452 -38.79066467 38.46025452 -38.79066467 38.12025452 C-29.88066467 38.12025452 -20.97066467 38.12025452 -11.79066467 38.12025452 C-11.86968536 30.68590341 -11.86968536 30.68590341 -11.97084045 23.25184631 C-11.97583557 22.32541321 -11.98083069 21.3989801 -11.98597717 20.44447327 C-11.99645081 19.4966095 -12.00692444 18.54874573 -12.01771545 17.57215881 C-11.79066467 15.12025452 -11.79066467 15.12025452 -9.79066467 12.12025452 C-6.16566467 11.93275452 -6.16566467 11.93275452 -2.79066467 12.12025452 C-2.80226624 11.33779358 -2.8138678 10.55533264 -2.82582092 9.74916077 C-2.83484436 8.7372467 -2.8438678 7.72533264 -2.85316467 6.68275452 C-2.86476624 5.67341858 -2.8763678 4.66408264 -2.88832092 3.62416077 C-2.75418677 0.18496115 -2.75418677 0.18496115 0 0 Z " fill="#27343E" transform="translate(49.79066467285156,-0.1202545166015625)"/>
<path d="M0 0 C0.33 0 0.66 0 1 0 C1 12.87 1 25.74 1 39 C-11.54 39 -24.08 39 -37 39 C-37 50.22 -37 61.44 -37 73 C-24.46 73 -11.92 73 1 73 C1.04125 79.208125 1.0825 85.41625 1.125 91.8125 C1.14320801 93.76905518 1.16141602 95.72561035 1.18017578 97.74145508 C1.18601708 99.29247768 1.1911135 100.84350334 1.1953125 102.39453125 C1.20554443 103.19967163 1.21577637 104.00481201 1.22631836 104.83435059 C1.22754548 108.74946506 1.22246818 110.66629773 -1 114 C12.2 114 25.4 114 39 114 C39 104.43 39 94.86 39 85 C39.33 85 39.66 85 40 85 C40.02465504 89.39656173 40.04283842 93.7930872 40.05493164 98.18969727 C40.05997121 99.68644918 40.06680287 101.18319616 40.07543945 102.67993164 C40.08752159 104.82699807 40.09323191 106.97399962 40.09765625 109.12109375 C40.10289307 110.4145874 40.10812988 111.70808105 40.11352539 113.04077148 C40 116 40 116 39 117 C35.98013169 117.02940438 32.98628869 116.99522289 29.96875 116.9140625 C29.06249878 116.89282318 28.15624756 116.87158386 27.22253418 116.84970093 C25.30242798 116.80335339 23.38238278 116.75441852 21.46240234 116.703125 C18.51282624 116.62533826 15.56314194 116.55818872 12.61328125 116.4921875 C10.75258815 116.44595251 8.89191032 116.39909837 7.03125 116.3515625 C6.14272339 116.33171295 5.25419678 116.3118634 4.33874512 116.29141235 C-1.88499598 116.11500402 -1.88499598 116.11500402 -3 115 C-3.08861992 112.1883662 -3.11522355 109.40141745 -3.09765625 106.58984375 C-3.0962413 105.74780899 -3.09482635 104.90577423 -3.09336853 104.03822327 C-3.08775263 101.33794665 -3.07519748 98.63775172 -3.0625 95.9375 C-3.05748705 94.11132932 -3.05292379 92.28515734 -3.04882812 90.45898438 C-3.03777804 85.97262458 -3.02050279 81.48632616 -3 77 C-4.11560303 77.00523682 -5.23120605 77.01047363 -6.38061523 77.01586914 C-10.50479333 77.03391775 -14.62896791 77.04543149 -18.75317383 77.05493164 C-20.54094021 77.05997218 -22.32870245 77.06680454 -24.11645508 77.07543945 C-26.68051168 77.0875173 -29.24451397 77.09323094 -31.80859375 77.09765625 C-33.01484657 77.10539818 -33.01484657 77.10539818 -34.24546814 77.11329651 C-36.16401715 77.11349215 -38.08245368 77.06201983 -40 77 C-42.12919789 74.87080211 -41.28393346 70.14025717 -41.3515625 67.1875 C-41.38629166 65.86141724 -41.38629166 65.86141724 -41.42172241 64.50854492 C-41.46942936 62.63563923 -41.51465506 60.76266897 -41.55761719 58.88964844 C-41.62471717 56.01212906 -41.70244904 53.13503248 -41.78125 50.2578125 C-41.82616267 48.4427241 -41.87045446 46.62762021 -41.9140625 44.8125 C-41.93796051 43.94584717 -41.96185852 43.07919434 -41.98648071 42.1862793 C-42.03008666 40.12464238 -42.02056654 38.06199546 -42 36 C-41 35 -41 35 -38.22436523 34.88647461 C-37.01466064 34.89171143 -35.80495605 34.89694824 -34.55859375 34.90234375 C-33.25341797 34.90556641 -31.94824219 34.90878906 -30.60351562 34.91210938 C-29.2148431 34.92046599 -27.82617123 34.92893095 -26.4375 34.9375 C-25.04492344 34.94251334 -23.65234519 34.94707653 -22.25976562 34.95117188 C-18.8398013 34.96300566 -15.41992156 34.9794912 -12 35 C-11.67 35.99 -11.34 36.98 -11 38 C-7.37 38 -3.74 38 0 38 C0 25.46 0 12.92 0 0 Z " fill="#1E3051" transform="translate(51,4)"/>
<path d="M0 0 C1.35444466 0.00212242 1.35444466 0.00212242 2.73625183 0.00428772 C5.60935838 0.00986802 8.48238591 0.02241691 11.35546875 0.03515625 C13.30794158 0.0401738 15.26041564 0.04473626 17.21289062 0.04882812 C21.98963799 0.05897846 26.76621531 0.07855772 31.54296875 0.09765625 C31.54296875 11.31765625 31.54296875 22.53765625 31.54296875 34.09765625 C28.57296875 34.09765625 25.60296875 34.09765625 22.54296875 34.09765625 C22.04796875 21.72265625 22.04796875 21.72265625 21.54296875 9.09765625 C19.03960937 9.04867187 16.53625 8.9996875 13.95703125 8.94921875 C11.53769857 8.89523864 9.11846652 8.83791958 6.69921875 8.78027344 C5.01537546 8.74194521 3.3314492 8.70709913 1.64746094 8.67578125 C-0.77048431 8.63021338 -3.18785653 8.57220702 -5.60546875 8.51171875 C-6.36072845 8.50016754 -7.11598816 8.48861633 -7.89413452 8.47671509 C-13.22928784 8.32539966 -13.22928784 8.32539966 -15.45703125 6.09765625 C-15.08203125 3.47265625 -15.08203125 3.47265625 -14.45703125 1.09765625 C-9.64304344 -0.14786074 -4.93356238 -0.02923419 0 0 Z " fill="#F6F7F7" transform="translate(93.45703125,42.90234375)"/>
<path d="M0 0 C0.66 0.33 1.32 0.66 2 1 C4.91699274 1.08698228 7.80982548 1.11551923 10.7265625 1.09765625 C11.58937836 1.0962413 12.45219421 1.09482635 13.34115601 1.09336853 C16.1024723 1.08776188 18.86370812 1.07520827 21.625 1.0625 C23.4947905 1.05748586 25.36458226 1.0529228 27.234375 1.04882812 C31.82294777 1.03779029 36.41146023 1.0205212 41 1 C39 3 39 3 36.6171875 3.1953125 C35.71226563 3.17210938 34.80734375 3.14890625 33.875 3.125 C31.461875 3.063125 31.461875 3.063125 29 3 C33.29 3.33 37.58 3.66 42 4 C42 4.33 42 4.66 42 5 C38.04 5 34.08 5 30 5 C29.67 6.65 29.34 8.3 29 10 C27 12 27 12 24.75341797 12.22705078 C23.84221191 12.21657715 22.93100586 12.20610352 21.9921875 12.1953125 C21.1038623 12.19031738 20.21553711 12.18532227 19.30029297 12.18017578 C18.16994629 12.16196777 17.03959961 12.14375977 15.875 12.125 C12.28625 12.08375 8.6975 12.0425 5 12 C5 22.23 5 32.46 5 43 C4.34 42.34 3.68 41.68 3 41 C-0.01308951 40.82453518 -2.93310454 40.76872555 -5.9453125 40.8046875 C-7.27283035 40.80893234 -7.27283035 40.80893234 -8.62716675 40.81326294 C-11.45991412 40.8244776 -14.29234784 40.8495843 -17.125 40.875 C-19.04296419 40.88502815 -20.96093333 40.89415428 -22.87890625 40.90234375 C-27.58605876 40.92442111 -32.29297616 40.95895955 -37 41 C-37.07412765 35.78559487 -37.12859104 30.57149607 -37.16479492 25.35668945 C-37.17988641 23.58254657 -37.20036191 21.80844102 -37.22631836 20.03442383 C-37.26268641 17.48509513 -37.27972238 14.93625941 -37.29296875 12.38671875 C-37.30845261 11.59287277 -37.32393646 10.79902679 -37.33988953 9.98112488 C-37.34057617 7.73706055 -37.34057617 7.73706055 -37 4 C-36.01 3.01 -35.02 2.02 -34 1 C-34 13.21 -34 25.42 -34 38 C-22.78 38 -11.56 38 0 38 C0 25.46 0 12.92 0 0 Z " fill="#394E4C" transform="translate(87,77)"/>
<path d="M0 0 C0.33 0 0.66 0 1 0 C1.33 9.9 1.66 19.8 2 30 C20.315 30.495 20.315 30.495 39 31 C39.33 43.54 39.66 56.08 40 69 C50.23 69.33 60.46 69.66 71 70 C70.01 70.495 70.01 70.495 69 71 C68.59270772 73.32156597 68.25561323 75.6568787 68 78 C62.76728431 78.07403712 57.53487199 78.12854783 52.30175781 78.16479492 C50.52077933 78.17990173 48.73983816 78.20038835 46.95898438 78.22631836 C44.40225022 78.26261943 41.8460069 78.27970688 39.2890625 78.29296875 C38.49005524 78.30845261 37.69104797 78.32393646 36.86782837 78.33988953 C34.62353516 78.34057617 34.62353516 78.34057617 31 78 C29 75 29 75 29 72 C29.99 72 30.98 72 32 72 C32 62.43 32 52.86 32 43 C32.33 43 32.66 43 33 43 C33.495 54.88 33.495 54.88 34 67 C34.66 66.67 35.32 66.34 36 66 C36.33 55.11 36.66 44.22 37 33 C34.50824219 33.02320313 32.01648437 33.04640625 29.44921875 33.0703125 C27.03654489 33.08590893 24.62387665 33.09805371 22.21118164 33.10986328 C20.53407275 33.11992237 18.85698139 33.13357122 17.17993164 33.15087891 C14.76964998 33.17513152 12.35960014 33.1864839 9.94921875 33.1953125 C8.82407112 33.21079636 8.82407112 33.21079636 7.67619324 33.22659302 C3.89699221 33.227408 2.22585601 33.15057067 -1 31 C-1.35644531 28.03491211 -1.35644531 28.03491211 -1.328125 24.27734375 C-1.32625183 23.61666397 -1.32437866 22.95598419 -1.32244873 22.27528381 C-1.3157261 20.87902783 -1.30180717 19.48279075 -1.28125 18.08666992 C-1.2500708 15.94236886 -1.24027799 13.79880221 -1.234375 11.65429688 C-1.16337676 1.16337676 -1.16337676 1.16337676 0 0 Z " fill="#8FC44D" transform="translate(9,50)"/>
<path d="M0 0 C0.33 0 0.66 0 1 0 C1 12.87 1 25.74 1 39 C-11.54 39 -24.08 39 -37 39 C-37 50.22 -37 61.44 -37 73 C-37.33 73 -37.66 73 -38 73 C-38 66.4 -38 59.8 -38 53 C-38.66 53 -39.32 53 -40 53 C-39.67 60.26 -39.34 67.52 -39 75 C-27.45 75.33 -15.9 75.66 -4 76 C-4 76.33 -4 76.66 -4 77 C-9.10863896 77.0246501 -14.21724359 77.04283607 -19.32592773 77.05493164 C-21.06519168 77.05997204 -22.80445136 77.0668043 -24.54370117 77.07543945 C-27.03825937 77.08751792 -29.53276173 77.09323108 -32.02734375 77.09765625 C-32.80963852 77.10281754 -33.59193329 77.10797882 -34.39793396 77.11329651 C-36.26567114 77.11349226 -38.13329204 77.06199694 -40 77 C-42.12919789 74.87080211 -41.28393346 70.14025717 -41.3515625 67.1875 C-41.38629166 65.86141724 -41.38629166 65.86141724 -41.42172241 64.50854492 C-41.46942936 62.63563923 -41.51465506 60.76266897 -41.55761719 58.88964844 C-41.62471717 56.01212906 -41.70244904 53.13503248 -41.78125 50.2578125 C-41.82616267 48.4427241 -41.87045446 46.62762021 -41.9140625 44.8125 C-41.93796051 43.94584717 -41.96185852 43.07919434 -41.98648071 42.1862793 C-42.03008666 40.12464238 -42.02056654 38.06199546 -42 36 C-41 35 -41 35 -38.22436523 34.88647461 C-37.01466064 34.89171143 -35.80495605 34.89694824 -34.55859375 34.90234375 C-33.25341797 34.90556641 -31.94824219 34.90878906 -30.60351562 34.91210938 C-29.2148431 34.92046599 -27.82617123 34.92893095 -26.4375 34.9375 C-25.04492344 34.94251334 -23.65234519 34.94707653 -22.25976562 34.95117188 C-18.8398013 34.96300566 -15.41992156 34.9794912 -12 35 C-11.67 35.99 -11.34 36.98 -11 38 C-7.37 38 -3.74 38 0 38 C0 25.46 0 12.92 0 0 Z " fill="#18283A" transform="translate(51,4)"/>
<path d="M0 0 C0.33 0 0.66 0 1 0 C1 12.54 1 25.08 1 38 C-11.21 38 -23.42 38 -36 38 C-36 37.67 -36 37.34 -36 37 C-27.09 37 -18.18 37 -9 37 C-9.07902069 29.56564889 -9.07902069 29.56564889 -9.18017578 22.1315918 C-9.1851709 21.20515869 -9.19016602 20.27872559 -9.1953125 19.32421875 C-9.20578613 18.37635498 -9.21625977 17.42849121 -9.22705078 16.4519043 C-9 14 -9 14 -7 11 C-3.375 10.8125 -3.375 10.8125 0 11 C0 7.37 0 3.74 0 0 Z " fill="#8FC157" transform="translate(47,1)"/>
<path d="M0 0 C0.33 0 0.66 0 1 0 C1 13.86 1 27.72 1 42 C-11.21 42 -23.42 42 -36 42 C-36 41.67 -36 41.34 -36 41 C-24.78 40.67 -13.56 40.34 -2 40 C-14.54 39.67 -27.08 39.34 -40 39 C-40 51.54 -40 64.08 -40 77 C-40.33 77 -40.66 77 -41 77 C-41 64.13 -41 51.26 -41 38 C-28.46 38 -15.92 38 -3 38 C-3 27.11 -3 16.22 -3 5 C-2.34 4.67 -1.68 4.34 -1 4 C-0.34786708 1.97536745 -0.34786708 1.97536745 0 0 Z " fill="#182537" transform="translate(129,39)"/>
<path d="M0 0 C2.31 0 4.62 0 7 0 C7 8.58 7 17.16 7 26 C4.03 26 1.06 26 -2 26 C-2.05785647 22.04172765 -2.09354717 18.0835633 -2.125 14.125 C-2.14175781 12.99707031 -2.15851563 11.86914062 -2.17578125 10.70703125 C-2.18222656 9.63066406 -2.18867187 8.55429688 -2.1953125 7.4453125 C-2.20578613 6.45031738 -2.21625977 5.45532227 -2.22705078 4.43017578 C-2 2 -2 2 0 0 Z " fill="#FDFEFD" transform="translate(80,89)"/>
<path d="M0 0 C14.52 0 29.04 0 44 0 C44 10.23 44 20.46 44 31 C43.67 31 43.34 31 43 31 C43 21.1 43 11.2 43 1 C29.47 1.33 15.94 1.66 2 2 C2.33 5.3 2.66 8.6 3 12 C3.07333052 14.51216162 3.10858324 17.0258546 3.09765625 19.5390625 C3.0962413 20.19079437 3.09482635 20.84252625 3.09336853 21.51400757 C3.08786879 23.55105623 3.07533731 25.58798581 3.0625 27.625 C3.05747197 29.02473797 3.05291138 30.4244777 3.04882812 31.82421875 C3.03713167 35.21619169 3.02074086 38.60807233 3 42 C-0.63 42 -4.26 42 -8 42 C-8.495 40.515 -8.495 40.515 -9 39 C-6.03 39 -3.06 39 0 39 C0 26.13 0 13.26 0 0 Z " fill="#1C2D4F" transform="translate(48,0)"/>
<path d="M0 0 C12.21 0 24.42 0 37 0 C37 0.33 37 0.66 37 1 C33.04 1 29.08 1 25 1 C24.67 2.65 24.34 4.3 24 6 C22 8 22 8 19.75341797 8.22705078 C18.84221191 8.21657715 17.93100586 8.20610352 16.9921875 8.1953125 C16.00605469 8.18886719 15.01992187 8.18242188 14.00390625 8.17578125 C12.45509766 8.15064453 12.45509766 8.15064453 10.875 8.125 C9.83472656 8.11597656 8.79445313 8.10695313 7.72265625 8.09765625 C5.14820908 8.07403747 2.57421788 8.04110149 0 8 C0 5.36 0 2.72 0 0 Z " fill="#8BC04C" transform="translate(92,81)"/>
<path d="M0 0 C-1.98 0.99 -1.98 0.99 -4 2 C-2.9275 1.649375 -1.855 1.29875 -0.75 0.9375 C2.78720743 0.05319814 3.74811124 -0.02880551 7 1 C6.2265625 1.27972656 5.453125 1.55945312 4.65625 1.84765625 C-8.77636761 7.01788407 -14.75476117 14.30523883 -21 27 C-22.32 26.67 -23.64 26.34 -25 26 C-23.86612511 16.09653576 -16.38762326 8.27647667 -9 2 C-3.76973684 -1.25657895 -3.76973684 -1.25657895 0 0 Z " fill="#1D3047" transform="translate(75,43)"/>
<path d="M0 0 C7.59 0 15.18 0 23 0 C23 1.98 23 3.96 23 6 C20.54724859 7.2263757 18.9494219 7.11415314 16.2109375 7.09765625 C15.26992188 7.09443359 14.32890625 7.09121094 13.359375 7.08789062 C12.37453125 7.07951172 11.3896875 7.07113281 10.375 7.0625 C9.38242187 7.05798828 8.38984375 7.05347656 7.3671875 7.04882812 C4.9113984 7.03702145 2.45572896 7.020554 0 7 C0 4.69 0 2.38 0 0 Z " fill="#FEFEFE" transform="translate(15,44)"/>
<path d="M0 0 C1.91091919 -0.36076355 1.91091919 -0.36076355 4.26611328 -0.34057617 C5.14687531 -0.34034958 6.02763733 -0.34012299 6.93508911 -0.33988953 C7.88721283 -0.32440567 8.83933655 -0.30892181 9.8203125 -0.29296875 C10.79410858 -0.28872391 11.76790466 -0.28447906 12.77120972 -0.28010559 C15.88941805 -0.26327786 19.00698617 -0.22561811 22.125 -0.1875 C24.23566777 -0.17245846 26.34634564 -0.15876914 28.45703125 -0.14648438 C33.63824023 -0.11336109 38.81907439 -0.06312151 44 0 C44 1.65 44 3.3 44 5 C43.505 3.515 43.505 3.515 43 2 C42.34 2.33 41.68 2.66 41 3 C39.61090696 3.08918777 38.21763093 3.11759541 36.82568359 3.11352539 C35.53457169 3.11341209 35.53457169 3.11341209 34.21737671 3.11329651 C33.28712677 3.10813522 32.35687683 3.10297394 31.3984375 3.09765625 C30.44683746 3.0962413 29.49523743 3.09482635 28.51480103 3.09336853 C25.46816903 3.08776012 22.42160987 3.07520619 19.375 3.0625 C17.31250106 3.05748608 15.25000097 3.05292299 13.1875 3.04882812 C8.12497183 3.03778796 3.06249827 3.02051767 -2 3 C-1.34 2.01 -0.68 1.02 0 0 Z " fill="#4B5760" transform="translate(85,38)"/>
<path d="M0 0 C0.33 0 0.66 0 1 0 C1.02465504 4.39656173 1.04283842 8.7930872 1.05493164 13.18969727 C1.05997121 14.68644918 1.06680287 16.18319616 1.07543945 17.67993164 C1.08752159 19.82699807 1.09323191 21.97399962 1.09765625 24.12109375 C1.10289307 25.4145874 1.10812988 26.70808105 1.11352539 28.04077148 C1 31 1 31 0 32 C-3.01986831 32.02940438 -6.01371131 31.99522289 -9.03125 31.9140625 C-9.93750122 31.89282318 -10.84375244 31.87158386 -11.77746582 31.84970093 C-13.69757202 31.80335339 -15.61761722 31.75441852 -17.53759766 31.703125 C-20.48717376 31.62533826 -23.43685806 31.55818872 -26.38671875 31.4921875 C-28.24741185 31.44595251 -30.10808968 31.39909837 -31.96875 31.3515625 C-32.85727661 31.33171295 -33.74580322 31.3118634 -34.66125488 31.29141235 C-40.88499598 31.11500402 -40.88499598 31.11500402 -42 30 C-42.04063832 28.33382885 -42.042721 26.66611905 -42 25 C-41.34 25 -40.68 25 -40 25 C-40 26.32 -40 27.64 -40 29 C-26.8 29 -13.6 29 0 29 C0 19.43 0 9.86 0 0 Z " fill="#22393E" transform="translate(90,89)"/>
<path d="M0 0 C0 8.25 0 16.5 0 25 C-0.99 25 -1.98 25 -3 25 C-3.66 17.41 -4.32 9.82 -5 2 C-11.27 1.67 -17.54 1.34 -24 1 C-24 0.34 -24 -0.32 -24 -1 C-20.75099666 -1.22644569 -17.50090961 -1.42797517 -14.25 -1.625 C-13.32960938 -1.68945312 -12.40921875 -1.75390625 -11.4609375 -1.8203125 C-10.12675781 -1.89765625 -10.12675781 -1.89765625 -8.765625 -1.9765625 C-7.94868164 -2.02893066 -7.13173828 -2.08129883 -6.29003906 -2.13525391 C-4 -2 -4 -2 0 0 Z " fill="#81BD39" transform="translate(78,14)"/>
<path d="M0 0 C12.87 0 25.74 0 39 0 C36.16994683 2.83005317 33.38121562 2.35267278 29.5859375 2.4140625 C28.93923096 2.43170654 28.29252441 2.44935059 27.6262207 2.4675293 C25.2094005 2.53061614 22.79216271 2.57678927 20.375 2.625 C14.97125 2.74875 9.5675 2.8725 4 3 C3.67 15.87 3.34 28.74 3 42 C2.67 42 2.34 42 2 42 C1.97494385 41.0713916 1.9498877 40.1427832 1.92407227 39.18603516 C1.82902068 35.74564196 1.72978293 32.30542287 1.62768555 28.86523438 C1.58433411 27.37537359 1.54265916 25.88546305 1.50268555 24.39550781 C1.44498785 22.25570673 1.38129245 20.11615615 1.31640625 17.9765625 C1.27974854 16.68830566 1.24309082 15.40004883 1.20532227 14.07275391 C1.20469325 11.0872318 1.20469325 11.0872318 0 9 C0 6.03 0 3.06 0 0 Z " fill="#3E4F59" transform="translate(89,78)"/>
<path d="M0 0 C6.93 0 13.86 0 21 0 C21 0.33 21 0.66 21 1 C14.4 1 7.8 1 1 1 C1 1.66 1 2.32 1 3 C7.27 3 13.54 3 20 3 C20 3.99 20 4.98 20 6 C13.73 6 7.46 6 1 6 C1 13.92 1 21.84 1 30 C0.67 30 0.34 30 0 30 C0 20.1 0 10.2 0 0 Z " fill="#9ECF5C" transform="translate(53,12)"/>
<path d="M0 0 C14.52 0 29.04 0 44 0 C44 10.23 44 20.46 44 31 C43.67 31 43.34 31 43 31 C43 21.1 43 11.2 43 1 C29.47 1.33 15.94 1.66 2 2 C2 5.3 2 8.6 2 12 C1.34 12 0.68 12 0 12 C0 8.04 0 4.08 0 0 Z " fill="#3A4650" transform="translate(48,0)"/>
<path d="M0 0 C0.33 0 0.66 0 1 0 C1.02465504 4.39656173 1.04283842 8.7930872 1.05493164 13.18969727 C1.05997121 14.68644918 1.06680287 16.18319616 1.07543945 17.67993164 C1.08752159 19.82699807 1.09323191 21.97399962 1.09765625 24.12109375 C1.10289307 25.4145874 1.10812988 26.70808105 1.11352539 28.04077148 C1 31 1 31 0 32 C-1.68608966 32.07205511 -3.37500659 32.08386068 -5.0625 32.0625 C-5.98160156 32.05347656 -6.90070313 32.04445312 -7.84765625 32.03515625 C-8.55792969 32.02355469 -9.26820312 32.01195312 -10 32 C-10 31.01 -10 30.02 -10 29 C-6.7 29 -3.4 29 0 29 C0 19.43 0 9.86 0 0 Z " fill="#16232D" transform="translate(90,89)"/>
<path d="M0 0 C12.87 0 25.74 0 39 0 C37 2 37 2 33.65185547 2.22705078 C32.22359367 2.22673375 30.79530788 2.21541361 29.3671875 2.1953125 C28.23943405 2.19106766 28.23943405 2.19106766 27.08889771 2.18673706 C24.68410422 2.17552874 22.27968119 2.15042352 19.875 2.125 C18.24609912 2.11497102 16.61719242 2.10584503 14.98828125 2.09765625 C10.99204444 2.07558735 6.99608506 2.04105351 3 2 C2.34 4.31 1.68 6.62 1 9 C0.67 9 0.34 9 0 9 C0 6.03 0 3.06 0 0 Z " fill="#304157" transform="translate(89,78)"/>
<path d="M0 0 C0.33 0 0.66 0 1 0 C1 9.9 1 19.8 1 30 C-2.63 30 -6.26 30 -10 30 C-9.67 29.34 -9.34 28.68 -9 28 C-7.865625 28.020625 -6.73125 28.04125 -5.5625 28.0625 C-2.18424326 28.41577477 -2.18424326 28.41577477 -1 27 C-0.84174742 25.00217874 -0.74880829 22.99911166 -0.68359375 20.99609375 C-0.62075195 19.17368164 -0.62075195 19.17368164 -0.55664062 17.31445312 C-0.51732422 16.03505859 -0.47800781 14.75566406 -0.4375 13.4375 C-0.39431641 12.15423828 -0.35113281 10.87097656 -0.30664062 9.54882812 C-0.200152 6.36600147 -0.09814038 3.18309326 0 0 Z " fill="#304450" transform="translate(50,12)"/>
<path d="M0 0 C0 1.65 0 3.3 0 5 C-0.99 4.67 -1.98 4.34 -3 4 C-3.4021875 5.3303125 -3.4021875 5.3303125 -3.8125 6.6875 C-4.91710819 9.76877548 -6.22849144 12.26221405 -8 15 C-9 12 -9 12 -8.109375 9.84375 C-7.43648437 8.68359375 -7.43648437 8.68359375 -6.75 7.5 C-6.31171875 6.7265625 -5.8734375 5.953125 -5.421875 5.15625 C-2.02173913 0 -2.02173913 0 0 0 Z " fill="#2E404A" transform="translate(61,53)"/>
<path d="M0 0 C0.66 0 1.32 0 2 0 C2 0.66 2 1.32 2 2 C2.99 2.33 3.98 2.66 5 3 C2.1875 4.5625 2.1875 4.5625 -1 6 C-1.99 5.67 -2.98 5.34 -4 5 C-3.67 4.67 -3.34 4.34 -3 4 C-3.99 3.01 -4.98 2.02 -6 1 C-4.7934375 1.0309375 -4.7934375 1.0309375 -3.5625 1.0625 C-1.06645115 1.29633621 -1.06645115 1.29633621 0 0 Z " fill="#93C84F" transform="translate(73,37)"/>
<path d="M0 0 C0.33 0.66 0.66 1.32 1 2 C0.38125 2.28875 -0.2375 2.5775 -0.875 2.875 C-3.13325765 3.93720042 -3.13325765 3.93720042 -5 6 C-6.66666667 6 -8.33333333 6 -10 6 C-6.80009492 3.25722422 -3.99500618 1.3697164 0 0 Z " fill="#9ACE55" transform="translate(77,45)"/>
<path d="M0 0 C2 1 2 1 2 1 Z " fill="#FEFFDA" transform="translate(116,88)"/>
</svg>
