<svg xmlns="http://www.w3.org/2000/svg" viewBox="0 0 640 512">
  <!--! Font Awesome Free 6.7.2 by @fontawesome - https://fontawesome.com License - https://fontawesome.com/license/free (Icons: CC BY 4.0, Fonts: SIL OFL 1.1, Code: MIT License) Copyright 2024 Fonticons, Inc. -->
  <path fill="#adb5bd" d="M320 96c-49.6 0-94.8 18.5-129.3 48.7l52.9 41.7c20.5-19.5 48.5-31.4 79.4-31.4c60.6 0 110.1 46.5 111.9 105.3l86.3 67.9c15.5-20.7 28.2-43.4 37.4-67.7c1.4-3.7 2.1-7.7 2.1-11.7s-.7-8-2.1-11.7C532.9 135.5 431.1 96 320 96zm0 320c49.6 0 94.8-18.5 129.3-48.7l-52.9-41.7C375.9 345.1 347.9 357 317 357c-60.6 0-110.1-46.5-111.9-105.3L118.8 183.8C103.2 204.5 90.6 227.2 81.4 251.5c-1.4 3.7-2.1 7.7-2.1 11.7s.7 8 2.1 11.7C107.1 376.5 208.9 416 320 416zM633.8 458.1l-110-86.6C476.1 404.9 401 448 320 448C168 448 39 342.1 4.3 263.2C1.6 257 0 250 0 243.2C0 233.6 2.5 224.1 7 215.4L9.2 211.1C33.5 164.9 69 124.4 112.6 94.1L24.2 24C17.7 18.9 16.6 9.1 21.7 2.6S36.9-2.4 43.4 2.6l592 466.7c6.5 5.1 7.6 14.9 2.6 21.4s-14.9 7.6-21.4 2.6z"/>
</svg>

