<svg xmlns="http://www.w3.org/2000/svg" viewBox="0 0 576 512"><!--! Font Awesome Free 6.7.2 by @fontawesome - https://fontawesome.com License - https://fontawesome.com/license/free (Icons: CC BY 4.0, Fonts: SIL OFL 1.1, Code: MIT License) Copyright 2024 Fonticons, Inc. --><path fill="#ffffff" d="M572.52 241.4C518.9 135.49 407.81 64 288 64S57.1 135.49 3.48 241.4a48.35 48.35 0 0 0 0 29.2C57.1 376.51 168.19 448 288 448s230.9-71.49 284.52-177.4a48.35 48.35 0 0 0 0-29.2zM288 400a144 144 0 1 1 144-144 144.16 144.16 0 0 1-144 144zm0-240a96 96 0 1 0 96 96 96.12 96.12 0 0 0-96-96z"/></svg>
