<svg xmlns="http://www.w3.org/2000/svg" viewBox="0 0 384 512" fill="#ffffff">
  <!-- Font Awesome Free 6.4.0 by @fontawesome - https://fontawesome.com License - https://fontawesome.com/license (Commercial License) Copyright 2023 Fonticons, Inc. -->
  <path d="M64 0C28.7 0 0 28.7 0 64V448c0 35.3 28.7 64 64 64H320c35.3 0 64-28.7 64-64V160H256c-17.7 0-32-14.3-32-32V0H64zM256 0V128H384L256 0zM64 224H88c30.9 0 56 25.1 56 56s-25.1 56-56 56H80v32c0 8.8-7.2 16-16 16s-16-7.2-16-16V288 256c0-17.7 14.3-32 32-32zm24 80c13.3 0 24-10.7 24-24s-10.7-24-24-24H80v48h8zm72-80c17.7 0 32 14.3 32 32v96c0 17.7-14.3 32-32 32s-32-14.3-32-32V304 256c0-17.7 14.3-32 32-32zm48 0h104c30.9 0 56 25.1 56 56s-25.1 56-56 56H256v48c0 8.8-7.2 16-16 16s-16-7.2-16-16V288 256c0-17.7 14.3-32 32-32zm136 80c13.3 0 24-10.7 24-24s-10.7-24-24-24H256v48h104z"/>
</svg>

