<svg xmlns="http://www.w3.org/2000/svg" viewBox="0 0 640 512">
  <path fill="#ffffff" d="M434.7 64.3c5.7-5.8 13.6-9.3 21.8-9.4h39c13.6 0 25.8 7.8 31.6 20.1l47.9 100.5 36.4 17.2c16.7 7.9 26.5 25.8 24.3 44.2s-15.7 33.4-34 37.5l-52.7 11.7c-.2 5.4-1.4 10.8-3.6 15.9L500 429.7c-6 13.6-19.4 22.3-34.2 22.3H342.5c-13.3 0-25.9-5.9-34.4-16.3l-39.6-47.6L178 430c-9.9 3.1-20.5 2.1-29.5-2.9l-60.5-33.6c-10-5.5-17.3-14.7-20.5-25.6l-9.6-32.3-20.2-9.6c-16.7-7.9-26.5-25.8-24.3-44.2s15.7-33.4 34-37.5l52.7-11.7c.2-5.4 1.4-10.8 3.6-15.9l45.4-102.2c6-13.6 19.4-22.3 34.2-22.3h100.6c13.3 0 25.9 5.9 34.4 16.3l39.6 47.6 90.5-78.9zM212.4 87.9c-6.5 0-12.3 3.8-15 9.6l-45.4 102.5c-.8 1.8-1.2 3.8-1.2 5.8v22.3c0 6.3-4.9 11.6-11.2 12.7l-62.2 11.6c-5.8 1.2-10.3 6-11 11.9s2.5 11.6 8 14.2l41.7 19.9c4.7 2.2 8.3 6.3 9.7 11.3l11.2 38c1.1 3.9 3.7 7.1 7.3 9l60.5 33.7c3.1 1.7 6.7 2.1 10.1 1l102.2-32c5.1-1.6 10.6.1 13.9 4.2l45.3 54.5c3 3.6 7.4 5.7 12.1 5.7H464c6.5 0 12.3-3.8 15-9.6l45.4-102.5c.8-1.8 1.2-3.8 1.2-5.8v-22.3c0-6.3 4.9-11.6 11.2-12.7l62.2-11.6c5.8-1.2 10.3-6 11-11.9s-2.5-11.6-8-14.2l-41.7-19.9c-4.7-2.2-8.3-6.3-9.7-11.3l-11.2-38c-1.1-3.9-3.7-7.1-7.3-9l-5.8-3.1L488.7 131c-8.7 7.6-21.6 6.8-29.4-1.7l-52.9-58.5c-3-3.3-7.3-5.2-11.7-5.2H212.4zm57 120.1 42.3 47.5H245.2c-9.1 0-16.5 7.4-16.5 16.5s7.4 16.5 16.5 16.5H320c8.2 0 15.4 4.5 19.2 11.5l18.2 34.5c4.3 8.1 14.4 11.2 22.5 6.8s11.2-14.4 6.8-22.5l-18.3-34.5c-8.4-15.8-24.5-25.7-42.4-25.7H306l-66.7-74.8c-6.1-6.8-16.5-7.3-23.3-1.2s-7.3 16.5-1.2 23.3z"/>
</svg>

