<svg xmlns="http://www.w3.org/2000/svg" viewBox="0 0 512 512">
  <!--! Font Awesome Free 6.7.2 by @fontawesome - https://fontawesome.com License - https://fontawesome.com/license/free (Icons: CC BY 4.0, Fonts: SIL OFL 1.1, Code: MIT License) Copyright 2024 Fonticons, Inc. -->
  <path fill="#495057" d="M512 176c0 97.2-78.8 176-176 176c-31 0-60.1-8-85.5-22.1l-42.8 42.8c-6 6-14.1 9.4-22.6 9.4H160v64c0 17.7-14.3 32-32 32H64c-17.7 0-32-14.3-32-32V352c0-17.7 14.3-32 32-32h49.4l82.8-82.8C181 215.1 176 196.2 176 176C176 78.8 254.8 0 352 0s160 78.8 160 176zM416 128a32 32 0 1 0-64 0 32 32 0 1 0 64 0z"/>
</svg>

